<svg viewBox="0 0 24 24" fill="currentColor" xmlns="http://www.w3.org/2000/svg">
  <path d="M12 0C5.373 0 0 5.373 0 12s5.373 12 12 12 12-5.373 12-12S18.627 0 12 0zm5.521 17.92c-.808 1.4-2.364 2.741-4.52 3.821-2.157 1.081-4.508 1.21-5.801.574-1.293-.636-1.927-2.201-1.927-4.66V8.934c0-1.119.182-2.748.545-4.887.364-2.139 1.331-4.694 2.901-7.663.5-.987 1.644-1.574 3.432-1.764 1.789-.189 3.316.125 4.584 1.043 1.268.918 1.932 2.214 1.932 3.888 0 1.673-.905 3.205-2.716 4.594-1.81 1.389-4.143 2.233-6.999 2.533v3.134c0 1.269.382 2.148 1.135 2.633.753.486 2.21.604 4.372.355 2.162-.249 3.958-1.142 5.387-2.68l1.685 1.685z"/>
</svg>