<svg viewBox="0 0 24 24" fill="currentColor" xmlns="http://www.w3.org/2000/svg">
  <path d="M20.447 20.452h-3.554v-5.569c0-1.328-.474-2.236-1.668-2.236-1.004 0-1.602.677-1.864 1.328-.096.231-.12.554-.12.877v5.6h-3.554s.048-9.095 0-10.047h3.554v1.424c.44-.68 1.23-1.648 2.994-1.648 2.187 0 3.828 1.43 3.828 4.509v5.762zM5.337 8.855c-1.144 0-1.915-.755-1.915-1.7 0-.953.769-1.7 1.963-1.7 1.19 0 1.917.747 1.942 1.7 0 .945-.752 1.7-1.99 1.7zm1.58 11.597h-3.16V8.405h3.16v11.047zM22.225 0H1.771C.792 0 0 .774 0 1.729v20.542C0 23.227.792 24 1.771 24h20.451C23.208 24 24 23.227 24 22.271V1.729C24 .774 23.208 0 22.225 0z"/>
</svg>